{"title":"The Flying Man 2013 WEBRip XViD AC3-KUTeam","uid":9670306,"size":71098368,"categoryP":"video","categoryS":"movie_clips","magnet":"?xt=urn:btih:3155c0989a729dc3356ef447115ed56b642eb923&amp;dn=The+Flying+Man+2013+WEBRip+XViD+AC3-KUTeam&amp;tr=udp%3A%2F%2Ftracker.openbittorrent.com%3A80&amp;tr=udp%3A%2F%2Fopen.demonii.com%3A1337&amp;tr=udp%3A%2F%2Ftracker.coppersurfer.tk%3A6969&amp;tr=udp%3A%2F%2Fexodus.desync.com%3A6969","seeders":9,"leechers":0,"uploader":".SceNe.","files":1,"time":1393445298,"description":" &lt;a href=&quot;http://i.imgur.com/CTRDJlG.jpg&quot; rel=&quot;nofollow&quot; target=&quot;_NEW&quot;&gt;http://i.imgur.com/CTRDJlG.jpg&lt;/a&gt;\n\nGerne: Short | Action | Fantasy\nIMDB: 7,2/10  \nDirector: Marcus Alqueres\nWriters: Marcus Alqueres (story), Henry Grazinoli, 1 more credit Â»\nStars: Nick Smyth, Rick Cordeiro, Justin T. Lee\nRelease Date: 2013\nEnconder: C0r3y\nSource: Web\n\nA super powered vigilante defies the law using extreme violence to fight crime.\n &lt;a href=&quot;\nhttp://i.imgur.com/hiNgBL3.jpg&quot; rel=&quot;nofollow&quot; target=&quot;_NEW&quot;&gt;\nhttp://i.imgur.com/hiNgBL3.jpg&lt;/a&gt; &lt;a href=&quot;\nhttp://i.imgur.com/LoarPfi.jpg&quot; rel=&quot;nofollow&quot; target=&quot;_NEW&quot;&gt;\nhttp://i.imgur.com/LoarPfi.jpg&lt;/a&gt;\n\nGeneral\nComplete name                            : The.Flying.Man.2013.WEBRip.XViD.AC3-KUTeam.avi\nFormat                                   : AVI\nFormat/Info                              : Audio Video Interleave\nFile size                                : 74.8 MiB\nDuration                                 : 9mn 20s\nOverall bit rate                         : 1 119 Kbps\nWriting application                      : VirtualDubMod 1.5.10.2 (build 2542/release)\nWriting library                          : VirtualDubMod build 2542/release\n\nVideo\nID                                       : 0\nFormat                                   : MPEG-4 Visual\nFormat profile                           : Advanced Simple@L5\nFormat settings, BVOP                    : 1\nFormat settings, QPel                    : No\nFormat settings, GMC                     : No warppoints\nFormat settings, Matrix                  : Default (H.263)\nMuxing mode                              : Packed bitstream\nCodec ID                                 : XVID\nCodec ID/Hint                            : XviD\nDuration                                 : 9mn 20s\nBit rate                                 : 919 Kbps\nWidth                                    : 720 pixels\nHeight                                   : 304 pixels\nDisplay aspect ratio                     : 2.35:1\nFrame rate                               : 23.976 fps\nColor space                              : YUV\nChroma subsampling                       : 4:2:0\nBit depth                                : 8 bits\nScan type                                : Progressive\nCompression mode                         : Lossy\nBits/(Pixel*Frame)                       : 0.175\nStream size                              : 61.4 MiB (82%)\nWriting library                          : XviD 64\n\nAudio\nID                                       : 1\nFormat                                   : AC-3\nFormat/Info                              : Audio Coding 3\nMode extension                           : CM (complete main)\nFormat settings, Endianness              : Big\nCodec ID                                 : 2000\nDuration                                 : 9mn 20s\nBit rate mode                            : Constant\nBit rate                                 : 192 Kbps\nChannel count                            : 2 channels\nChannel positions                        : Front: L R\nSampling rate                            : 48.0 KHz\nBit depth                                : 16 bits\nCompression mode                         : Lossy\nStream size                              : 12.8 MiB (17%)\nAlignment                                : Split accross interleaves\nInterleave, duration                     : 64 ms (1.54 video frames)\nInterleave, preload duration             : 500 ms\n\n","torrent":{"xt":"urn:btih:3155c0989a729dc3356ef447115ed56b642eb923","amp;dn":"The+Flying+Man+2013+WEBRip+XViD+AC3-KUTeam","amp;tr":["udp%3A%2F%2Ftracker.openbittorrent.com%3A80","udp%3A%2F%2Fopen.demonii.com%3A1337","udp%3A%2F%2Ftracker.coppersurfer.tk%3A6969","udp%3A%2F%2Fexodus.desync.com%3A6969"],"infoHash":"3155c0989a729dc3356ef447115ed56b642eb923","infoHashBuffer":{"type":"Buffer","data":[49,85,192,152,154,114,157,195,53,110,244,71,17,94,213,107,100,46,185,35]},"announce":[],"urlList":[]}}